<svg xmlns="http://www.w3.org/2000/svg" width="95" height="24" viewBox="0 0 95 24" fill="none"><path d="M20 0.0342452H13.3305L5.87506 10.9215V0.0342452H0V24H5.87506V12.7361L15.1858 24H23L12.6242 11.2982L20 0.0342452Z" fill="black"></path><path d="M46.9016 12.0343C46.9016 5.94014 41.748 7.62939e-06 33.468 7.62939e-06C24.5351 7.62939e-06 20 6.59064 20 12.0343C20 18.1284 25.2566 24 33.3649 24C42.4695 24 46.9016 17.4437 46.9016 12.0343ZM40.8547 12.1714C40.8547 16.7934 36.6151 19.2753 32.8702 19.2753C30.0873 19.2753 26.0812 17.7177 26.0812 12.1372C26.0812 7.51518 29.2421 4.97144 33.4336 4.97144C38.0031 4.97144 40.8547 7.82336 40.8547 12.1714Z" fill="black"></path><path d="M49 7.62939e-06V12V24H54.3941H59.7881C62.4336 24 63.8423 23.7946 65.4227 22.9044C67.9995 21.4665 69 19.0542 69 17C69 12.515 65.0447 11.2297 63.8079 10.8531C65.9724 9.7575 66.9688 7.84024 66.9688 6.16263C66.9688 4.10843 65.5601 1.33524 62.5023 0.445086C60.9219 7.62939e-06 59.6163 7.62939e-06 57.9328 7.62939e-06H49ZM57.2457 4.51927C58.5169 4.51927 61.0937 4.51927 61.0937 7.05279C61.0937 9.62055 58.4826 9.62055 57.1426 9.62055H54.9438V4.51927H57.2457ZM57.5549 13.8317C59.9599 13.8317 62.7428 13.8317 62.7428 16.6733C62.7428 19.4465 59.8568 19.4465 57.8298 19.4465H54.9438V13.8317H57.5549Z" fill="black"></path><path d="M95 7.62939e-06H89V11.9144C89 13.9686 88.9123 14.9729 88.5 16C87.7233 17.9348 85.3019 19 83 19C80.6981 19 78.4918 17.9836 77.5 16C77 15 77 12.873 77 11.9144V0L71 7.62939e-06V13.2154C71 16.9815 71.8589 18.6248 72.7866 19.8574C75.9474 23.9315 81.2915 24 83.1124 24C86.7199 24 90.5679 23.1098 92.9729 20.234C94.9656 17.8031 95 14.893 95 13.0442V7.62939e-06Z" fill="black"></path></svg>